<svg xmlns="http://www.w3.org/2000/svg" width="32" height="32" viewBox="0 0 24 24">
  <defs>
    <linearGradient id="iconGradient" x1="0%" y1="0%" x2="100%" y2="100%">
      <stop offset="0%" style="stop-color:#059669;stop-opacity:1" /> <!-- Primary Green -->
      <stop offset="100%" style="stop-color:#2563eb;stop-opacity:1" /> <!-- Accent Blue -->
    </linearGradient>
  </defs>
  <!-- Stethoscope Icon with Branded Gradient -->
  <g fill="none" stroke="url(#iconGradient)" stroke-width="2.2" stroke-linecap="round" stroke-linejoin="round">
    <path d="M4.8 2.3A.3.3 0 1 0 5 2H4a2 2 0 0 0-2 2v5a6 6 0 0 0 6 6v0a6 6 0 0 0 6-6V4a2 2 0 0 0-2-2h-1a.2.2 0 1 0 .3.3"/>
    <path d="M8 15v1a6 6 0 0 0 6 6v0a6 6 0 0 0 6-6v-4"/>
    <circle cx="20" cy="10" r="2.2" fill="url(#iconGradient)" stroke-width="0"/>
  </g>
  <!-- Subtle nature/leaf element path -->
  <path d="M21 2c-1.2 1.2-1.8 3-1.8 4.8s.6 3.2 1.8 3.8c1.2-.6 1.8-2 1.8-3.8s-.6-3.6-1.8-4.8z" fill="url(#iconGradient)" opacity="0.9" />
</svg>